<?xml version="1.0"?>
<svg xmlns="http://www.w3.org/2000/svg" viewBox="0 0 512 512"><g id="outline"><path d="M24,304H99.3l26.276,60.046a62.2,62.2,0,0,0,28.208,30.159l20.242,10.521-20.154,62.031a8,8,0,0,0,5.136,10.08l60.867,19.777a8,8,0,0,0,10.08-5.136l23.271-71.619,65.227-6.433a62.2,62.2,0,0,0,37.4-17.508l16.261-16,52.767,38.337a8,8,0,0,0,11.174-1.77l37.618-51.776a8,8,0,0,0-1.77-11.174l-60.921-44.263,14.037-64.023a62.2,62.2,0,0,0-5.094-40.978l-10.192-20.411L462.5,145.521a8,8,0,0,0,1.77-11.173L426.653,82.571A8,8,0,0,0,415.479,80.8l-60.922,44.261L298,91.929a62.2,62.2,0,0,0-40.546-7.819L234.9,87.5l-20.155-62.03a8,8,0,0,0-10.081-5.137L143.793,40.107a8,8,0,0,0-5.136,10.081l23.27,71.617L112.939,165.35A62.2,62.2,0,0,0,92.974,201.5L89.223,224H24a8,8,0,0,0-8,8v64A8,8,0,0,0,24,304ZM217.214,478.925l-45.651-14.833,19.777-60.867a8,8,0,0,0-3.919-9.571l-26.255-13.646a46.153,46.153,0,0,1-20.929-22.376l-23.945-54.721A50.282,50.282,0,0,0,136,294l5.721-4.291,9.952,24.875c-.011.087-.027.173-.037.26a24.509,24.509,0,0,0,5.145,18.17l24.11,30.518a34.037,34.037,0,0,0,10.319,19.462,8,8,0,1,0,10.934-11.682,17.962,17.962,0,0,1-5.468-10.4l-.281-1.867a7.994,7.994,0,0,0-1.633-3.768L169.335,323.1a8.674,8.674,0,0,1,11.649-12.573l29.62,19.938a32.075,32.075,0,0,1,10.644,12.018c.027.054.055.107.083.16l10.8,20.07a29.8,29.8,0,0,0-4.307,50.814l1.553,1.127a29.772,29.772,0,0,0,7.448,3.919Zm-29.688-299.45,14.651-12.21,1.865,1.312a7.977,7.977,0,0,0,.972.585l21,10.7a48.112,48.112,0,0,0,21.8,5.232c.569,0,1.14-.01,1.71-.031l35.683-1.279A24.579,24.579,0,0,0,307.62,167.23L324.1,177.607l-4.919,26.124c-.014.077-.027.153-.039.229a48.121,48.121,0,0,0,2.319,23.969l12.244,33.54a24.576,24.576,0,0,0,22.669,16.194L351.7,296.152l-2.279.035a7.917,7.917,0,0,0-1.13.1l-23.286,3.688a48.106,48.106,0,0,0-22.079,9.613l-28.114,22.009a24.586,24.586,0,0,0-8.412,26.565l-17.907,1.191-13.032-24.218a48.112,48.112,0,0,0-15.922-17.944l-29.62-19.938a24.573,24.573,0,0,0-27.858.225l-7.084-17.707L156.8,278.4c.039-.029.073-.063.112-.093.11-.086.217-.177.324-.269s.212-.186.313-.283c.035-.034.073-.063.108-.1l16.671-16.671a48.116,48.116,0,0,0,12.212-20.755l9.808-34.331A24.572,24.572,0,0,0,187.526,179.475ZM427.815,400.607,376.038,362.99a8,8,0,0,0-10.313.77l-21.092,20.754a46.152,46.152,0,0,1-27.748,12.99l-68.643,6.77a13.811,13.811,0,0,1-9.462-2.569l-1.552-1.127a13.793,13.793,0,0,1,7.19-24.922l35.073-2.333a24.6,24.6,0,0,0,19.093.839l36.475-13.5a33.892,33.892,0,0,0,18.282-2.155,8,8,0,0,0-6.117-14.785,17.871,17.871,0,0,1-9.777,1.119l-1.863-.31a8.017,8.017,0,0,0-4.088.389l-38.465,14.236a8.673,8.673,0,0,1-8.357-14.964l28.114-22.008a32.085,32.085,0,0,1,14.72-6.41l22.724-3.6,25.43-.386a33.963,33.963,0,0,1,20.5,6.488l59.867,43.5Zm-9.4-302.159,28.214,38.832L394.848,174.9a8,8,0,0,0-2.455,10.046l13.22,26.473a46.154,46.154,0,0,1,3.779,30.4L396.6,300.166a50.2,50.2,0,0,0-21.182-4.374l-7.151.108,6.57-25.974c.061-.064.123-.124.183-.189a24.505,24.505,0,0,0,6.518-17.723l-1.568-38.862a33.624,33.624,0,0,0,3.657-13.647,8,8,0,1,0-15.978-.826,17.749,17.749,0,0,1-1.989,7.314l-.869,1.677a7.99,7.99,0,0,0-.894,4.007l1.654,40.981a8.673,8.673,0,0,1-16.814,3.324l-12.244-33.54a32.075,32.075,0,0,1-1.564-15.87l5.371-28.523,5.736-18.613a34.226,34.226,0,0,1,12.507-17.493ZM202,38.02l19.777,60.866a7.992,7.992,0,0,0,8.8,5.439l29.263-4.392a46.168,46.168,0,0,1,30.083,5.8l51.537,30.2a50.3,50.3,0,0,0-10.707,18.794l-2.106,6.835-22.671-14.274c-.043-.078-.081-.157-.124-.234A24.514,24.514,0,0,0,291,135.374l-37.444-10.518a33.65,33.65,0,0,0-11.545-7.577,8,8,0,1,0-5.867,14.885,17.765,17.765,0,0,1,6.182,4.091l1.325,1.345a8.015,8.015,0,0,0,3.535,2.087l39.487,11.091a8.674,8.674,0,0,1-2.034,17.019l-35.683,1.279a32.042,32.042,0,0,1-15.674-3.467l-20.5-10.445-20.8-14.634a34.215,34.215,0,0,1-12.772-17.3L156.346,52.853ZM32,240H96a8,8,0,0,0,7.891-6.685l4.865-29.187a46.149,46.149,0,0,1,14.813-26.819l44.644-39.683a50.281,50.281,0,0,0,14.565,15.99l5.848,4.115-20.581,17.151c-.087.017-.173.028-.259.046A24.5,24.5,0,0,0,152.1,185.436L130.521,217.8A33.7,33.7,0,0,0,112,248a8,8,0,0,0,16,0,17.79,17.79,0,0,1,9.89-16l1.689-.845a8.006,8.006,0,0,0,3.077-2.717l22.751-34.127a8.674,8.674,0,0,1,15.557,7.194l-9.808,34.331a32.078,32.078,0,0,1-8.142,13.836l-16.269,16.269L126.4,281.2A34.21,34.21,0,0,1,106,288H32Z"/><path d="M250.343,301.657a8,8,0,0,0,11.314,0l42.035-42.035a28.365,28.365,0,1,0-40.113-40.114L256,227.087l-7.579-7.579a28.365,28.365,0,0,0-40.113,40.114ZM228.365,227.2a12.284,12.284,0,0,1,8.743,3.622l13.235,13.236a8,8,0,0,0,11.314,0l13.235-13.236a12.364,12.364,0,1,1,17.486,17.486L256,284.687l-36.378-36.379a12.364,12.364,0,0,1,8.743-21.108Z"/></g></svg>
