<?xml version="1.0"?>
<svg xmlns="http://www.w3.org/2000/svg" viewBox="0 0 512 512"><g id="outline"><path d="M410.631,350.18h0a29.527,29.527,0,0,0-41.07-7.561l-34.279,23.619L343.2,302.9A24,24,0,0,0,336,256H264V190.291a192.943,192.943,0,0,1,74.354-55.232l.73-.306a8,8,0,0,0,4.071-10.959l-1.281-2.564a37.9,37.9,0,0,0-54.013-15.168l-2.282,1.43A37.784,37.784,0,0,0,264,115.982V112.1a150.8,150.8,0,0,1,58.508-43.647l.577-.241a8,8,0,0,0,2.03-13.533l-8.859-7.366a31.426,31.426,0,0,0-30.22-5.685l-5.356,1.784a31.556,31.556,0,0,0-24.925,14.053,41.583,41.583,0,0,0-3.794,7.151A37.791,37.791,0,0,0,225.372,52.3l-7.063-2.354A37.661,37.661,0,0,0,182.1,56.758L170.885,66.08a8,8,0,0,0,2.031,13.533l.732.306A192.951,192.951,0,0,1,248,135.151v9.734a37.787,37.787,0,0,0-21.579-8.49l-2.283-1.43a37.9,37.9,0,0,0-54.012,15.169l-1.282,2.564a8,8,0,0,0,4.076,10.96l.728.3A192.966,192.966,0,0,1,248,219.194V256H176a24,24,0,0,0-7.2,46.895l4.679,37.433a81.4,81.4,0,0,0-30.9,12.965L75.461,399.537a8,8,0,0,0-2.048,11.126L118.8,476.539a8,8,0,0,0,11.126,2.048l36.36-25.053,45.364,13.673a8.176,8.176,0,0,0,.861.208l55.632,10.242a8.014,8.014,0,0,0,4.451-.452l68.367-27.677a8.011,8.011,0,0,0,2.486-1.6l63.121-59.513A29.369,29.369,0,0,0,410.631,350.18ZM288,123.415a8,8,0,0,0,4.247-1.22l4.108-2.574a21.94,21.94,0,0,1,28.087,4.1A209.272,209.272,0,0,0,264,166.388V141.837l5.781-8.672A21.854,21.854,0,0,1,288,123.415ZM264.781,80.494a25.447,25.447,0,0,1,4.287-14.158,15.6,15.6,0,0,1,13-6.958,7.989,7.989,0,0,0,2.529-.411l6.5-2.165a15.721,15.721,0,0,1,4.975-.812,15.494,15.494,0,0,1,9.018,2.9,167.16,167.16,0,0,0-40.307,28.747ZM190.956,70.2l1.37-1.139a21.766,21.766,0,0,1,20.924-3.937l8.22,2.74a8,8,0,0,0,2.53.411,21.854,21.854,0,0,1,18.219,9.75L248,86.7v24.551A209.328,209.328,0,0,0,190.956,70.2Zm-3.4,82.42a21.938,21.938,0,0,1,28.087-4.1l4.108,2.574a8,8,0,0,0,4.247,1.22,21.854,21.854,0,0,1,18.219,9.75L248,170.74v24.551A209.225,209.225,0,0,0,187.558,152.62ZM317.085,378.776l-4.531-.262a30.114,30.114,0,0,0-3.079-.413l-48.78-3.913a81.924,81.924,0,0,0-51.75-32.986l-5.277-.972a82.52,82.52,0,0,0-14.245-1.345L185.062,304H326.938l-9.3,74.395ZM176,272H336a8,8,0,0,1,0,16H176a8,8,0,0,1,0-16ZM395.6,376.778l-62.028,58.483L268.753,461.5l-52.906-9.741-48.621-14.654a8,8,0,0,0-6.848,1.073l-32.939,22.7-36.313-52.7,60.526-41.7a65.2,65.2,0,0,1,49.119-10.5l5.276.972a65.845,65.845,0,0,1,43.43,29.222,8,8,0,0,0,6.1,3.668L308.2,394.05l.019,0c.439.036.87.1,1.3.178.137.024.271.043.409.072a14.22,14.22,0,0,1-1.388,28.073L246.07,428.9a8,8,0,0,0,.821,15.957,8.208,8.208,0,0,0,.84-.044l62.464-6.519a30.223,30.223,0,0,0,21.75-47.208c-.488-.71-1.013-1.385-1.553-2.043l48.247-33.245A13.529,13.529,0,0,1,395.6,376.778Z"/></g></svg>
