<?xml version="1.0"?>
<svg xmlns="http://www.w3.org/2000/svg" viewBox="0 0 512 512"><g id="outline"><path d="M448,92a75.988,75.988,0,0,0-151.757-5.787L260.031,65.09a8,8,0,0,0-8.062,0l-192,112A8,8,0,0,0,56,184V488a8,8,0,0,0,8,8H448a8,8,0,0,0,8-8V184a8,8,0,0,0-3.969-6.91l-37.709-22A75.984,75.984,0,0,0,448,92ZM136,480V408a8,8,0,0,0-16,0v72H104V328a16.025,16.025,0,0,1,9.8-14.746,39.9,39.9,0,0,0,43.1.833,21.919,21.919,0,0,1,6.227,4.356l27.717,27.718-2.927,8.779L164.8,337.6A8,8,0,0,0,152,344V480Zm0-176a24,24,0,1,1,24-24A24.028,24.028,0,0,1,136,304Zm80,176H168V360l18.745,14.059L216,403.313Zm48,0V440a8,8,0,0,0-16,0v40H232V400a8,8,0,0,0-2.343-5.657l-28.5-28.5,3.283-9.848,17.728,10.637a65.764,65.764,0,0,0,67.671,0l17.729-10.637,3.283,9.848-28.5,28.5A8,8,0,0,0,280,400v80ZM232,336a24,24,0,1,1,24,24A24.028,24.028,0,0,1,232,336Zm144-32a24,24,0,1,1,24-24A24.028,24.028,0,0,1,376,304Zm-27.13,14.443a21.919,21.919,0,0,1,6.227-4.356,39.9,39.9,0,0,0,43.1-.833A16.025,16.025,0,0,1,408,328q0,.285.021.57L415.408,432H352.694l7.278-87.335A8,8,0,0,0,347.2,337.6l-23.12,17.34-2.927-8.779ZM344,480H296V403.313l29.255-29.254,17.293-12.97-6.52,78.246A8,8,0,0,0,344,448Zm16-32h16v32H360Zm32,32V448h16v32Zm48-291.4V480H424V448a8,8,0,0,0,7.979-8.57L424,327.694A32.067,32.067,0,0,0,409.768,301.4a40,40,0,1,0-66.745,1.2,37.909,37.909,0,0,0-5.466,4.525L307.04,337.647,295,344.873a40,40,0,1,0-77.992,0l-12.044-7.226L174.443,307.13a37.909,37.909,0,0,0-5.466-4.525,40,40,0,1,0-66.745-1.205A32.062,32.062,0,0,0,88,328V480H72V188.6L256,81.262l41.187,24.025A76.044,76.044,0,0,0,325.435,152H296a8,8,0,0,0,0,16h72a8.091,8.091,0,0,0,1.039-.075c.984.038,1.968.075,2.961.075a75.65,75.65,0,0,0,25.264-4.334ZM372,152a60,60,0,1,1,60-60A60.068,60.068,0,0,1,372,152Z"/><path d="M372,48a44,44,0,1,0,44,44A44.049,44.049,0,0,0,372,48Zm0,72a28,28,0,1,1,28-28A28.032,28.032,0,0,1,372,120Z"/><path d="M278.98,200a24.689,24.689,0,0,0-17.573,7.279L256,212.687l-5.407-5.408a24.853,24.853,0,0,0-38.252,3.788,30.009,30.009,0,0,0,5.767,39.771l32.77,27.308a8,8,0,0,0,10.244,0l32.77-27.309a30.009,30.009,0,0,0,5.768-39.77A24.8,24.8,0,0,0,278.98,200Zm4.668,38.546L256,261.586l-27.648-23.04a14.036,14.036,0,0,1-2.7-18.6,8.852,8.852,0,0,1,13.625-1.349l11.064,11.064a8,8,0,0,0,11.314,0l11.064-11.064a8.853,8.853,0,0,1,13.626,1.349A14.037,14.037,0,0,1,283.648,238.546Z"/></g></svg>
