<?xml version="1.0"?>
<svg xmlns="http://www.w3.org/2000/svg" viewBox="0 0 512 512"><g id="outline"><path d="M303.432,119.431l-45.255,45.255-45.256-45.255A80,80,0,1,0,99.785,232.569l10.9,10.9-8.885,31.1a77.927,77.927,0,0,0,0,42.857L112,353.12V488a8,8,0,0,0,8,8h88a8,8,0,0,0,8-8V394.422l4.579-6.869a67.752,67.752,0,0,0,11.319-34.18,80.415,80.415,0,0,0,56.142-1.34,67.774,67.774,0,0,0,11.38,35.52l4.58,6.869V488a8,8,0,0,0,8,8h88a8,8,0,0,0,8-8V353.12l10.2-35.691a77.927,77.927,0,0,0,0-42.857l-9.7-33.936,8.066-8.067A80,80,0,0,0,303.432,119.431ZM111.1,130.745a64.072,64.072,0,0,1,90.51,0L246.863,176s-88.81,87.775-90.622,90.4L111.1,221.255A64.074,64.074,0,0,1,111.1,130.745ZM216,349.833a51.841,51.841,0,0,1-8.733,28.845l-5.924,8.884A8,8,0,0,0,200,392v88H128V352a8,8,0,0,0-.308-2.2l-10.5-36.771a61.936,61.936,0,0,1,0-34.065l6.443-22.552L152,284.785v16.793l-14.656,21.984a8,8,0,0,0,13.312,8.876l16-24A8,8,0,0,0,168,304V280a8,8,0,0,1,3.658-6.71,7.789,7.789,0,0,0,.689-.4A7.987,7.987,0,0,1,184,280v56a24.028,24.028,0,0,1-24,24,8,8,0,0,0,0,16,40.045,40.045,0,0,0,40-40v-3.216l1.608,1.609A79.894,79.894,0,0,0,216,345.785Zm-3.078-26.755L200,310.156V280a24.022,24.022,0,0,0-13.125-21.384l71.3-71.3h0l45.255,45.255A63.27,63.27,0,0,1,321.8,270.893,23.863,23.863,0,0,0,320,280v14.671a7.991,7.991,0,0,0-.314.881,64.021,64.021,0,0,1-106.764,27.526Zm189.891-44.11a61.936,61.936,0,0,1,0,34.065l-10.5,36.77A8,8,0,0,0,392,352V480H320V392a8,8,0,0,0-1.343-4.438l-5.924-8.884A51.841,51.841,0,0,1,304,349.833V344c0-.2-.016-.4-.03-.6a80.166,80.166,0,0,0,10.776-9.008q2.774-2.775,5.254-5.8V336a40.045,40.045,0,0,0,40,40,8,8,0,0,0,0-16,24.028,24.028,0,0,1-24-24V280a8,8,0,0,1,16,0v24a8,8,0,0,0,1.344,4.438l16,24a8,8,0,0,0,13.312-8.876L368,301.578V281.137l27.559-27.559Zm2.442-57.713-43.089,43.088a23.947,23.947,0,0,0-26.622-6.8,80.253,80.253,0,0,0-20.8-36.288L269.49,176l45.255-45.255a64,64,0,0,1,90.51,90.51Z"/><path d="M194.343,173.657l8,8a8,8,0,0,0,11.314-11.314l-8-8a8,8,0,0,0-11.314,11.314Z"/><path d="M178.343,157.657a8,8,0,0,0,11.314-11.314l-16-16a8,8,0,0,0-11.314,11.314Z"/><path d="M61.359,48a8,8,0,0,0,8-8V24a8,8,0,1,0-16,0V40A8,8,0,0,0,61.359,48Z"/><path d="M22.718,50.928l13.856,8a8,8,0,0,0,8-13.856l-13.856-8a8,8,0,0,0-8,13.856Z"/><path d="M19.79,88a8,8,0,0,0,10.928,2.928l13.856-8a8,8,0,0,0-8-13.856l-13.856,8A8,8,0,0,0,19.79,88Z"/><path d="M53.359,104a8,8,0,1,0,16,0V88a8,8,0,1,0-16,0Z"/><path d="M78.144,82.928l13.856,8a8,8,0,1,0,8-13.856l-13.856-8a8,8,0,1,0-8,13.856Z"/><path d="M82.151,60a7.97,7.97,0,0,0,3.993-1.073l13.856-8a8,8,0,1,0-8-13.856l-13.856,8A8,8,0,0,0,82.151,60Z"/><path d="M451.713,112a8,8,0,0,0,16,0v-8a8,8,0,1,0-16,0Z"/><path d="M425.072,100A8,8,0,0,0,436,102.928l6.928-4a8,8,0,1,0-8-13.856l-6.928,4A8,8,0,0,0,425.072,100Z"/><path d="M428,70.928l6.928,4a8,8,0,0,0,8-13.856l-6.928-4a8,8,0,1,0-8,13.856Z"/><path d="M459.713,64a8,8,0,0,0,8-8V48a8,8,0,0,0-16,0v8A8,8,0,0,0,459.713,64Z"/><path d="M483.426,57.072l-6.928,4a8,8,0,1,0,8,13.856l6.928-4a8,8,0,1,0-8-13.856Z"/><path d="M491.426,89.072l-6.928-4a8,8,0,1,0-8,13.856l6.928,4a8,8,0,0,0,8-13.856Z"/></g></svg>
