<svg width="18" height="18" viewBox="0 0 18 18" fill="none" xmlns="http://www.w3.org/2000/svg">
<path d="M3.98438 12H6V14.0156H3.98438V12ZM3.98438 8.01562H6V9.98438H3.98438V8.01562ZM3.98438 3.98438H6V6H3.98438V3.98438ZM8.01562 12H14.0156V14.0156H8.01562V12ZM8.01562 8.01562H14.0156V9.98438H8.01562V8.01562ZM8.01562 3.98438H14.0156V6H8.01562V3.98438ZM17.1094 0C17.3281 0 17.5312 0.09375 17.7188 0.28125C17.9062 0.4375 18 0.640625 18 0.890625V17.1094C18 17.3281 17.9062 17.5312 17.7188 17.7188C17.5312 17.9062 17.3281 18 17.1094 18H0.890625C0.640625 18 0.421875 17.9062 0.234375 17.7188C0.078125 17.5312 0 17.3281 0 17.1094V0.890625C0 0.296875 0.296875 0 0.890625 0H17.1094ZM15.9844 2.01562H2.01562V15.9844H15.9844V2.01562Z" fill="#313131"/>
</svg>
